<svg width="899px" height="569px" xmlns="http://www.w3.org/2000/svg" xmlns:xlink="http://www.w3.org/1999/xlink">
<g style="">  <path d="M546.106975,11.398112 C526.856975,11.937112,476.906978,12.229112,435.106975,12.045112 C281.296977,11.372113,230.830974,11.702112,207.606975,13.532112 C160.160976,17.272112,130.876971,20.979112,99.106975,27.268113 C85.356975,29.990112,72.928975,32.682113,71.487975,33.249112 C67.664975,34.757112,63.037975,39.934112,60.407975,45.648113 C58.123975,50.612113,58.110975,50.874112,58.606975,82.148113 C59.699975,151.025112,59.096975,170.295116,55.066975,195.148113 C52.928975,208.335113,46.972975,238.981113,45.252975,245.648113 C44.401975,248.948113,42.983975,255.248113,42.102975,259.648113 C40.188975,269.201113,33.288975,299.202113,31.061975,307.648113 C30.191975,310.948113,28.330975,318.373113,26.925975,324.148113 C22.484975,342.405113,14.680975,373.435111,13.093975,379.148113 C8.628975,395.216113,9.008975,414.899112,14.153975,434.125114 C17.369975,446.143113,20.656975,452.078113,28.250975,459.579114 C38.944975,470.141115,73.755976,493.841115,87.047976,499.608114 C88.729976,500.338114,96.196976,503.873114,103.638975,507.463114 C147.215975,528.483114,200.544974,544.578115,260.106978,554.685114 C287.495978,559.333114,295.265978,559.814114,309.368979,557.735114 C330.082979,554.682114,340.421978,550.413114,348.495978,541.579114 C356.789977,532.504114,362.041977,520.920113,368.160979,498.210114 C370.276978,490.357114,372.573979,483.714114,373.266978,483.448114 C373.959978,483.182114,379.156978,484.764114,384.816979,486.963114 C407.207979,495.664114,426.128979,499.380114,448.606980,499.495114 C470.046980,499.604114,495.077980,494.113114,514.697983,484.997114 C519.613983,482.713114,523.883983,481.091114,524.185983,481.393113 C524.487983,481.696113,527.408983,491.326113,530.677983,502.795114 C537.818983,527.851114,541.681983,536.150113,549.626982,543.506112 C558.659982,551.869112,566.878983,554.820113,589.563983,557.845112 C599.964983,559.233112,603.676983,559.320112,612.063983,558.373112 C642.880982,554.894112,692.426982,543.092112,734.106982,529.301112 C753.245982,522.969112,767.906981,517.637112,773.106982,515.119112 C774.206982,514.586112,782.756982,510.886112,792.106982,506.895112 C815.970982,496.710111,841.519980,481.791111,862.128985,466.005112 C875.108985,456.064112,878.836985,452.060112,882.572985,444.054112 C887.493985,433.507112,888.924986,424.928112,888.980985,405.648114 C889.035985,386.889113,888.452985,383.089114,882.621985,364.148114 C880.505985,357.273114,877.195985,346.248114,875.266985,339.648114 C871.461985,326.627114,856.161986,267.841115,855.096985,262.148114 C854.736985,260.223114,853.160985,253.248114,851.595985,246.648114 C848.581985,233.942113,843.779985,207.283112,841.059985,188.148114 C838.512985,170.235114,838.015985,120.080113,840.050985,86.232113 C842.334985,48.239113,840.758985,39.610112,830.606985,34.501114 C814.090984,26.190114,734.344984,14.482115,679.106985,12.257115 C639.490984,10.661115,584.974981,10.309115,546.106985,11.398115 " style="fill: rgba(0, 0, 0, 1.000000); " fill="#000000" stroke="none" />
</g></svg>